<mxfile host="app.diagrams.net" agent="Mozilla/5.0 (Windows NT 10.0; Win64; x64) AppleWebKit/537.36 (KHTML, like Gecko) Chrome/141.0.0.0 Safari/537.36 Edg/141.0.0.0" version="28.2.5" pages="2">
  <diagram name="Page-1" id="CCbfevaemv9hmZ6m9d3Q">
    <mxGraphModel dx="1226" dy="1949" grid="1" gridSize="10" guides="1" tooltips="1" connect="1" arrows="1" fold="1" page="1" pageScale="1" pageWidth="827" pageHeight="1169" background="#ffffff" math="0" shadow="0">
      <root>
        <mxCell id="0" />
        <mxCell id="1" parent="0" />
        <mxCell id="rqQPfrZREQYKPDniyKOR-11" style="edgeStyle=orthogonalEdgeStyle;rounded=0;orthogonalLoop=1;jettySize=auto;html=1;entryX=0;entryY=0.5;entryDx=0;entryDy=0;fillColor=#60a917;strokeColor=#2D7600;" edge="1" parent="1" source="rqQPfrZREQYKPDniyKOR-1" target="rqQPfrZREQYKPDniyKOR-3">
          <mxGeometry relative="1" as="geometry" />
        </mxCell>
        <mxCell id="rqQPfrZREQYKPDniyKOR-12" style="edgeStyle=orthogonalEdgeStyle;rounded=0;orthogonalLoop=1;jettySize=auto;html=1;entryX=0;entryY=0.5;entryDx=0;entryDy=0;fillColor=#60a917;strokeColor=#2D7600;" edge="1" parent="1" source="rqQPfrZREQYKPDniyKOR-1" target="rqQPfrZREQYKPDniyKOR-5">
          <mxGeometry relative="1" as="geometry" />
        </mxCell>
        <mxCell id="rqQPfrZREQYKPDniyKOR-13" style="edgeStyle=orthogonalEdgeStyle;rounded=0;orthogonalLoop=1;jettySize=auto;html=1;fillColor=#60a917;strokeColor=#2D7600;" edge="1" parent="1" source="rqQPfrZREQYKPDniyKOR-1" target="rqQPfrZREQYKPDniyKOR-4">
          <mxGeometry relative="1" as="geometry" />
        </mxCell>
        <mxCell id="rqQPfrZREQYKPDniyKOR-20" style="edgeStyle=orthogonalEdgeStyle;rounded=0;orthogonalLoop=1;jettySize=auto;html=1;entryX=0.5;entryY=0;entryDx=0;entryDy=0;fillColor=#60a917;strokeColor=#2D7600;" edge="1" parent="1" source="rqQPfrZREQYKPDniyKOR-1" target="rqQPfrZREQYKPDniyKOR-7">
          <mxGeometry relative="1" as="geometry">
            <Array as="points">
              <mxPoint x="150" y="-120" />
              <mxPoint x="1050" y="-120" />
            </Array>
          </mxGeometry>
        </mxCell>
        <mxCell id="rqQPfrZREQYKPDniyKOR-24" style="edgeStyle=orthogonalEdgeStyle;rounded=0;orthogonalLoop=1;jettySize=auto;html=1;entryX=0.5;entryY=1;entryDx=0;entryDy=0;fillColor=#60a917;strokeColor=#2D7600;" edge="1" parent="1" source="rqQPfrZREQYKPDniyKOR-1" target="rqQPfrZREQYKPDniyKOR-10">
          <mxGeometry relative="1" as="geometry">
            <Array as="points">
              <mxPoint x="150" y="510" />
              <mxPoint x="1050" y="510" />
            </Array>
          </mxGeometry>
        </mxCell>
        <mxCell id="rqQPfrZREQYKPDniyKOR-25" style="edgeStyle=orthogonalEdgeStyle;rounded=0;orthogonalLoop=1;jettySize=auto;html=1;exitX=1;exitY=1;exitDx=0;exitDy=0;fillColor=#60a917;strokeColor=#2D7600;" edge="1" parent="1" source="rqQPfrZREQYKPDniyKOR-1" target="rqQPfrZREQYKPDniyKOR-9">
          <mxGeometry relative="1" as="geometry" />
        </mxCell>
        <mxCell id="rqQPfrZREQYKPDniyKOR-35" style="edgeStyle=orthogonalEdgeStyle;rounded=0;orthogonalLoop=1;jettySize=auto;html=1;exitX=1;exitY=0;exitDx=0;exitDy=0;entryX=0;entryY=0;entryDx=0;entryDy=0;fillColor=#008a00;strokeColor=#005700;" edge="1" parent="1" source="rqQPfrZREQYKPDniyKOR-1" target="rqQPfrZREQYKPDniyKOR-6">
          <mxGeometry relative="1" as="geometry" />
        </mxCell>
        <mxCell id="rqQPfrZREQYKPDniyKOR-1" value="F" style="ellipse;whiteSpace=wrap;html=1;fillColor=#60a917;fontColor=#ffffff;strokeColor=#2D7600;" vertex="1" parent="1">
          <mxGeometry x="90" y="160" width="120" height="80" as="geometry" />
        </mxCell>
        <mxCell id="rqQPfrZREQYKPDniyKOR-3" value="D" style="ellipse;whiteSpace=wrap;html=1;" vertex="1" parent="1">
          <mxGeometry x="410" y="-10" width="120" height="80" as="geometry" />
        </mxCell>
        <mxCell id="rqQPfrZREQYKPDniyKOR-17" style="edgeStyle=orthogonalEdgeStyle;rounded=0;orthogonalLoop=1;jettySize=auto;html=1;entryX=0;entryY=0.5;entryDx=0;entryDy=0;fillColor=#a20025;strokeColor=light-dark(#6F0000, #ff0000);" edge="1" parent="1" source="rqQPfrZREQYKPDniyKOR-4" target="rqQPfrZREQYKPDniyKOR-6">
          <mxGeometry relative="1" as="geometry" />
        </mxCell>
        <mxCell id="rqQPfrZREQYKPDniyKOR-18" style="edgeStyle=orthogonalEdgeStyle;rounded=0;orthogonalLoop=1;jettySize=auto;html=1;exitX=0.5;exitY=1;exitDx=0;exitDy=0;entryX=0;entryY=0.5;entryDx=0;entryDy=0;fillColor=#a20025;strokeColor=light-dark(#6F0000,#FF0000);" edge="1" parent="1" source="rqQPfrZREQYKPDniyKOR-4" target="rqQPfrZREQYKPDniyKOR-10">
          <mxGeometry relative="1" as="geometry" />
        </mxCell>
        <mxCell id="rqQPfrZREQYKPDniyKOR-19" style="edgeStyle=orthogonalEdgeStyle;rounded=0;orthogonalLoop=1;jettySize=auto;html=1;exitX=1;exitY=1;exitDx=0;exitDy=0;entryX=0;entryY=0.5;entryDx=0;entryDy=0;fillColor=#a20025;strokeColor=light-dark(#6F0000, #ff0000);" edge="1" parent="1" source="rqQPfrZREQYKPDniyKOR-4" target="rqQPfrZREQYKPDniyKOR-9">
          <mxGeometry relative="1" as="geometry" />
        </mxCell>
        <mxCell id="rqQPfrZREQYKPDniyKOR-4" value="E" style="ellipse;whiteSpace=wrap;html=1;fillColor=#a20025;fontColor=#ffffff;strokeColor=#6F0000;" vertex="1" parent="1">
          <mxGeometry x="413" y="160" width="120" height="80" as="geometry" />
        </mxCell>
        <mxCell id="rqQPfrZREQYKPDniyKOR-27" style="edgeStyle=orthogonalEdgeStyle;rounded=0;orthogonalLoop=1;jettySize=auto;html=1;entryX=0.5;entryY=1;entryDx=0;entryDy=0;" edge="1" parent="1" source="rqQPfrZREQYKPDniyKOR-5" target="rqQPfrZREQYKPDniyKOR-7">
          <mxGeometry relative="1" as="geometry" />
        </mxCell>
        <mxCell id="rqQPfrZREQYKPDniyKOR-28" style="edgeStyle=orthogonalEdgeStyle;rounded=0;orthogonalLoop=1;jettySize=auto;html=1;exitX=1;exitY=1;exitDx=0;exitDy=0;entryX=0;entryY=0.5;entryDx=0;entryDy=0;fillColor=#1ba1e2;strokeColor=#006EAF;" edge="1" parent="1" source="rqQPfrZREQYKPDniyKOR-5" target="rqQPfrZREQYKPDniyKOR-8">
          <mxGeometry relative="1" as="geometry" />
        </mxCell>
        <mxCell id="rqQPfrZREQYKPDniyKOR-29" style="edgeStyle=orthogonalEdgeStyle;rounded=0;orthogonalLoop=1;jettySize=auto;html=1;entryX=0.5;entryY=0;entryDx=0;entryDy=0;fillColor=#1ba1e2;strokeColor=#006EAF;" edge="1" parent="1" source="rqQPfrZREQYKPDniyKOR-5" target="rqQPfrZREQYKPDniyKOR-10">
          <mxGeometry relative="1" as="geometry" />
        </mxCell>
        <mxCell id="rqQPfrZREQYKPDniyKOR-30" style="edgeStyle=orthogonalEdgeStyle;rounded=0;orthogonalLoop=1;jettySize=auto;html=1;exitX=1;exitY=0;exitDx=0;exitDy=0;entryX=0;entryY=1;entryDx=0;entryDy=0;fillColor=#1ba1e2;strokeColor=#006EAF;" edge="1" parent="1" source="rqQPfrZREQYKPDniyKOR-5" target="rqQPfrZREQYKPDniyKOR-7">
          <mxGeometry relative="1" as="geometry" />
        </mxCell>
        <mxCell id="rqQPfrZREQYKPDniyKOR-5" value="G" style="ellipse;whiteSpace=wrap;html=1;fillColor=#0050ef;fontColor=#ffffff;strokeColor=#001DBC;" vertex="1" parent="1">
          <mxGeometry x="413" y="330" width="120" height="80" as="geometry" />
        </mxCell>
        <mxCell id="rqQPfrZREQYKPDniyKOR-6" value="I" style="ellipse;whiteSpace=wrap;html=1;" vertex="1" parent="1">
          <mxGeometry x="690" y="160" width="120" height="80" as="geometry" />
        </mxCell>
        <mxCell id="rqQPfrZREQYKPDniyKOR-14" style="edgeStyle=orthogonalEdgeStyle;rounded=0;orthogonalLoop=1;jettySize=auto;html=1;entryX=1;entryY=0.5;entryDx=0;entryDy=0;fillColor=#f0a30a;strokeColor=#BD7000;" edge="1" parent="1" source="rqQPfrZREQYKPDniyKOR-7" target="rqQPfrZREQYKPDniyKOR-6">
          <mxGeometry relative="1" as="geometry" />
        </mxCell>
        <mxCell id="rqQPfrZREQYKPDniyKOR-7" value="A" style="ellipse;whiteSpace=wrap;html=1;fillColor=#f0a30a;fontColor=#000000;strokeColor=#BD7000;" vertex="1" parent="1">
          <mxGeometry x="990" y="-100" width="120" height="80" as="geometry" />
        </mxCell>
        <mxCell id="rqQPfrZREQYKPDniyKOR-8" value="B" style="ellipse;whiteSpace=wrap;html=1;" vertex="1" parent="1">
          <mxGeometry x="990" y="90" width="120" height="80" as="geometry" />
        </mxCell>
        <mxCell id="rqQPfrZREQYKPDniyKOR-9" value="C" style="ellipse;whiteSpace=wrap;html=1;" vertex="1" parent="1">
          <mxGeometry x="990" y="260" width="120" height="80" as="geometry" />
        </mxCell>
        <mxCell id="rqQPfrZREQYKPDniyKOR-10" value="H" style="ellipse;whiteSpace=wrap;html=1;" vertex="1" parent="1">
          <mxGeometry x="990" y="410" width="120" height="80" as="geometry" />
        </mxCell>
        <mxCell id="rqQPfrZREQYKPDniyKOR-15" style="edgeStyle=orthogonalEdgeStyle;rounded=0;orthogonalLoop=1;jettySize=auto;html=1;entryX=1;entryY=0.5;entryDx=0;entryDy=0;fillColor=#fa6800;strokeColor=light-dark(#C73500,#FF9165);" edge="1" parent="1" source="rqQPfrZREQYKPDniyKOR-7" target="rqQPfrZREQYKPDniyKOR-10">
          <mxGeometry relative="1" as="geometry">
            <Array as="points">
              <mxPoint x="1160" y="-60" />
              <mxPoint x="1160" y="440" />
              <mxPoint x="1110" y="440" />
            </Array>
          </mxGeometry>
        </mxCell>
        <mxCell id="rqQPfrZREQYKPDniyKOR-31" value="NIVEAU 1" style="text;html=1;align=center;verticalAlign=middle;whiteSpace=wrap;rounded=0;" vertex="1" parent="1">
          <mxGeometry x="120" y="580" width="60" height="30" as="geometry" />
        </mxCell>
        <mxCell id="rqQPfrZREQYKPDniyKOR-32" value="NIVEAU 2" style="text;html=1;align=center;verticalAlign=middle;whiteSpace=wrap;rounded=0;" vertex="1" parent="1">
          <mxGeometry x="450" y="580" width="60" height="30" as="geometry" />
        </mxCell>
        <mxCell id="rqQPfrZREQYKPDniyKOR-33" value="NIVEAU 3" style="text;html=1;align=center;verticalAlign=middle;whiteSpace=wrap;rounded=0;" vertex="1" parent="1">
          <mxGeometry x="720" y="570" width="60" height="30" as="geometry" />
        </mxCell>
        <mxCell id="rqQPfrZREQYKPDniyKOR-34" value="NIVEAU 4" style="text;html=1;align=center;verticalAlign=middle;whiteSpace=wrap;rounded=0;" vertex="1" parent="1">
          <mxGeometry x="1010" y="570" width="60" height="30" as="geometry" />
        </mxCell>
      </root>
    </mxGraphModel>
  </diagram>
  <diagram id="zN2KZptlS6jGwo62BWdL" name="Page-2">
    <mxGraphModel dx="983" dy="606" grid="1" gridSize="10" guides="1" tooltips="1" connect="1" arrows="1" fold="1" page="1" pageScale="1" pageWidth="827" pageHeight="1169" math="0" shadow="0">
      <root>
        <mxCell id="0" />
        <mxCell id="1" parent="0" />
        <mxCell id="NuQw6LrgB7U-fi54WxKk-1" value="" style="shape=table;startSize=0;container=1;collapsible=0;childLayout=tableLayout;fontSize=16;" parent="1" vertex="1">
          <mxGeometry x="120" y="70" width="630" height="160" as="geometry" />
        </mxCell>
        <mxCell id="NuQw6LrgB7U-fi54WxKk-2" value="" style="shape=tableRow;horizontal=0;startSize=0;swimlaneHead=0;swimlaneBody=0;strokeColor=inherit;top=0;left=0;bottom=0;right=0;collapsible=0;dropTarget=0;fillColor=none;points=[[0,0.5],[1,0.5]];portConstraint=eastwest;fontSize=16;" parent="NuQw6LrgB7U-fi54WxKk-1" vertex="1">
          <mxGeometry width="630" height="40" as="geometry" />
        </mxCell>
        <mxCell id="NuQw6LrgB7U-fi54WxKk-3" value="Tache" style="shape=partialRectangle;html=1;whiteSpace=wrap;connectable=0;strokeColor=inherit;overflow=hidden;fillColor=none;top=0;left=0;bottom=0;right=0;pointerEvents=1;fontSize=16;" parent="NuQw6LrgB7U-fi54WxKk-2" vertex="1">
          <mxGeometry width="63" height="40" as="geometry">
            <mxRectangle width="63" height="40" as="alternateBounds" />
          </mxGeometry>
        </mxCell>
        <mxCell id="NuQw6LrgB7U-fi54WxKk-4" value="A" style="shape=partialRectangle;html=1;whiteSpace=wrap;connectable=0;strokeColor=inherit;overflow=hidden;fillColor=none;top=0;left=0;bottom=0;right=0;pointerEvents=1;fontSize=16;" parent="NuQw6LrgB7U-fi54WxKk-2" vertex="1">
          <mxGeometry x="63" width="63" height="40" as="geometry">
            <mxRectangle width="63" height="40" as="alternateBounds" />
          </mxGeometry>
        </mxCell>
        <mxCell id="NuQw6LrgB7U-fi54WxKk-5" value="B" style="shape=partialRectangle;html=1;whiteSpace=wrap;connectable=0;strokeColor=inherit;overflow=hidden;fillColor=none;top=0;left=0;bottom=0;right=0;pointerEvents=1;fontSize=16;" parent="NuQw6LrgB7U-fi54WxKk-2" vertex="1">
          <mxGeometry x="126" width="74" height="40" as="geometry">
            <mxRectangle width="74" height="40" as="alternateBounds" />
          </mxGeometry>
        </mxCell>
        <mxCell id="NuQw6LrgB7U-fi54WxKk-15" value="C" style="shape=partialRectangle;html=1;whiteSpace=wrap;connectable=0;strokeColor=inherit;overflow=hidden;fillColor=none;top=0;left=0;bottom=0;right=0;pointerEvents=1;fontSize=16;" parent="NuQw6LrgB7U-fi54WxKk-2" vertex="1">
          <mxGeometry x="200" width="52" height="40" as="geometry">
            <mxRectangle width="52" height="40" as="alternateBounds" />
          </mxGeometry>
        </mxCell>
        <mxCell id="NuQw6LrgB7U-fi54WxKk-18" value="D" style="shape=partialRectangle;html=1;whiteSpace=wrap;connectable=0;strokeColor=inherit;overflow=hidden;fillColor=none;top=0;left=0;bottom=0;right=0;pointerEvents=1;fontSize=16;" parent="NuQw6LrgB7U-fi54WxKk-2" vertex="1">
          <mxGeometry x="252" width="63" height="40" as="geometry">
            <mxRectangle width="63" height="40" as="alternateBounds" />
          </mxGeometry>
        </mxCell>
        <mxCell id="NuQw6LrgB7U-fi54WxKk-21" value="E" style="shape=partialRectangle;html=1;whiteSpace=wrap;connectable=0;strokeColor=inherit;overflow=hidden;fillColor=none;top=0;left=0;bottom=0;right=0;pointerEvents=1;fontSize=16;" parent="NuQw6LrgB7U-fi54WxKk-2" vertex="1">
          <mxGeometry x="315" width="63" height="40" as="geometry">
            <mxRectangle width="63" height="40" as="alternateBounds" />
          </mxGeometry>
        </mxCell>
        <mxCell id="NuQw6LrgB7U-fi54WxKk-24" value="F" style="shape=partialRectangle;html=1;whiteSpace=wrap;connectable=0;strokeColor=inherit;overflow=hidden;fillColor=none;top=0;left=0;bottom=0;right=0;pointerEvents=1;fontSize=16;" parent="NuQw6LrgB7U-fi54WxKk-2" vertex="1">
          <mxGeometry x="378" width="63" height="40" as="geometry">
            <mxRectangle width="63" height="40" as="alternateBounds" />
          </mxGeometry>
        </mxCell>
        <mxCell id="NuQw6LrgB7U-fi54WxKk-27" value="G" style="shape=partialRectangle;html=1;whiteSpace=wrap;connectable=0;strokeColor=inherit;overflow=hidden;fillColor=none;top=0;left=0;bottom=0;right=0;pointerEvents=1;fontSize=16;" parent="NuQw6LrgB7U-fi54WxKk-2" vertex="1">
          <mxGeometry x="441" width="63" height="40" as="geometry">
            <mxRectangle width="63" height="40" as="alternateBounds" />
          </mxGeometry>
        </mxCell>
        <mxCell id="NuQw6LrgB7U-fi54WxKk-30" value="H" style="shape=partialRectangle;html=1;whiteSpace=wrap;connectable=0;strokeColor=inherit;overflow=hidden;fillColor=none;top=0;left=0;bottom=0;right=0;pointerEvents=1;fontSize=16;" parent="NuQw6LrgB7U-fi54WxKk-2" vertex="1">
          <mxGeometry x="504" width="63" height="40" as="geometry">
            <mxRectangle width="63" height="40" as="alternateBounds" />
          </mxGeometry>
        </mxCell>
        <mxCell id="NuQw6LrgB7U-fi54WxKk-36" value="I" style="shape=partialRectangle;html=1;whiteSpace=wrap;connectable=0;strokeColor=inherit;overflow=hidden;fillColor=none;top=0;left=0;bottom=0;right=0;pointerEvents=1;fontSize=16;" parent="NuQw6LrgB7U-fi54WxKk-2" vertex="1">
          <mxGeometry x="567" width="63" height="40" as="geometry">
            <mxRectangle width="63" height="40" as="alternateBounds" />
          </mxGeometry>
        </mxCell>
        <mxCell id="NuQw6LrgB7U-fi54WxKk-6" value="" style="shape=tableRow;horizontal=0;startSize=0;swimlaneHead=0;swimlaneBody=0;strokeColor=inherit;top=0;left=0;bottom=0;right=0;collapsible=0;dropTarget=0;fillColor=none;points=[[0,0.5],[1,0.5]];portConstraint=eastwest;fontSize=16;" parent="NuQw6LrgB7U-fi54WxKk-1" vertex="1">
          <mxGeometry y="40" width="630" height="40" as="geometry" />
        </mxCell>
        <mxCell id="NuQw6LrgB7U-fi54WxKk-7" value="Predecesseur" style="shape=partialRectangle;html=1;whiteSpace=wrap;connectable=0;strokeColor=inherit;overflow=hidden;fillColor=none;top=0;left=0;bottom=0;right=0;pointerEvents=1;fontSize=16;" parent="NuQw6LrgB7U-fi54WxKk-6" vertex="1">
          <mxGeometry width="63" height="40" as="geometry">
            <mxRectangle width="63" height="40" as="alternateBounds" />
          </mxGeometry>
        </mxCell>
        <mxCell id="NuQw6LrgB7U-fi54WxKk-8" value="-" style="shape=partialRectangle;html=1;whiteSpace=wrap;connectable=0;strokeColor=inherit;overflow=hidden;fillColor=none;top=0;left=0;bottom=0;right=0;pointerEvents=1;fontSize=16;" parent="NuQw6LrgB7U-fi54WxKk-6" vertex="1">
          <mxGeometry x="63" width="63" height="40" as="geometry">
            <mxRectangle width="63" height="40" as="alternateBounds" />
          </mxGeometry>
        </mxCell>
        <mxCell id="NuQw6LrgB7U-fi54WxKk-9" value="A" style="shape=partialRectangle;html=1;whiteSpace=wrap;connectable=0;strokeColor=inherit;overflow=hidden;fillColor=none;top=0;left=0;bottom=0;right=0;pointerEvents=1;fontSize=16;" parent="NuQw6LrgB7U-fi54WxKk-6" vertex="1">
          <mxGeometry x="126" width="74" height="40" as="geometry">
            <mxRectangle width="74" height="40" as="alternateBounds" />
          </mxGeometry>
        </mxCell>
        <mxCell id="NuQw6LrgB7U-fi54WxKk-16" value="B,F" style="shape=partialRectangle;html=1;whiteSpace=wrap;connectable=0;strokeColor=inherit;overflow=hidden;fillColor=none;top=0;left=0;bottom=0;right=0;pointerEvents=1;fontSize=16;" parent="NuQw6LrgB7U-fi54WxKk-6" vertex="1">
          <mxGeometry x="200" width="52" height="40" as="geometry">
            <mxRectangle width="52" height="40" as="alternateBounds" />
          </mxGeometry>
        </mxCell>
        <mxCell id="NuQw6LrgB7U-fi54WxKk-19" value="A" style="shape=partialRectangle;html=1;whiteSpace=wrap;connectable=0;strokeColor=inherit;overflow=hidden;fillColor=none;top=0;left=0;bottom=0;right=0;pointerEvents=1;fontSize=16;" parent="NuQw6LrgB7U-fi54WxKk-6" vertex="1">
          <mxGeometry x="252" width="63" height="40" as="geometry">
            <mxRectangle width="63" height="40" as="alternateBounds" />
          </mxGeometry>
        </mxCell>
        <mxCell id="NuQw6LrgB7U-fi54WxKk-22" value="B" style="shape=partialRectangle;html=1;whiteSpace=wrap;connectable=0;strokeColor=inherit;overflow=hidden;fillColor=none;top=0;left=0;bottom=0;right=0;pointerEvents=1;fontSize=16;" parent="NuQw6LrgB7U-fi54WxKk-6" vertex="1">
          <mxGeometry x="315" width="63" height="40" as="geometry">
            <mxRectangle width="63" height="40" as="alternateBounds" />
          </mxGeometry>
        </mxCell>
        <mxCell id="NuQw6LrgB7U-fi54WxKk-25" value="E,B" style="shape=partialRectangle;html=1;whiteSpace=wrap;connectable=0;strokeColor=inherit;overflow=hidden;fillColor=none;top=0;left=0;bottom=0;right=0;pointerEvents=1;fontSize=16;" parent="NuQw6LrgB7U-fi54WxKk-6" vertex="1">
          <mxGeometry x="378" width="63" height="40" as="geometry">
            <mxRectangle width="63" height="40" as="alternateBounds" />
          </mxGeometry>
        </mxCell>
        <mxCell id="NuQw6LrgB7U-fi54WxKk-28" value="B" style="shape=partialRectangle;html=1;whiteSpace=wrap;connectable=0;strokeColor=inherit;overflow=hidden;fillColor=none;top=0;left=0;bottom=0;right=0;pointerEvents=1;fontSize=16;" parent="NuQw6LrgB7U-fi54WxKk-6" vertex="1">
          <mxGeometry x="441" width="63" height="40" as="geometry">
            <mxRectangle width="63" height="40" as="alternateBounds" />
          </mxGeometry>
        </mxCell>
        <mxCell id="NuQw6LrgB7U-fi54WxKk-31" value="I,C" style="shape=partialRectangle;html=1;whiteSpace=wrap;connectable=0;strokeColor=inherit;overflow=hidden;fillColor=none;top=0;left=0;bottom=0;right=0;pointerEvents=1;fontSize=16;" parent="NuQw6LrgB7U-fi54WxKk-6" vertex="1">
          <mxGeometry x="504" width="63" height="40" as="geometry">
            <mxRectangle width="63" height="40" as="alternateBounds" />
          </mxGeometry>
        </mxCell>
        <mxCell id="NuQw6LrgB7U-fi54WxKk-37" value="B,F" style="shape=partialRectangle;html=1;whiteSpace=wrap;connectable=0;strokeColor=inherit;overflow=hidden;fillColor=none;top=0;left=0;bottom=0;right=0;pointerEvents=1;fontSize=16;" parent="NuQw6LrgB7U-fi54WxKk-6" vertex="1">
          <mxGeometry x="567" width="63" height="40" as="geometry">
            <mxRectangle width="63" height="40" as="alternateBounds" />
          </mxGeometry>
        </mxCell>
        <mxCell id="NuQw6LrgB7U-fi54WxKk-10" value="" style="shape=tableRow;horizontal=0;startSize=0;swimlaneHead=0;swimlaneBody=0;strokeColor=inherit;top=0;left=0;bottom=0;right=0;collapsible=0;dropTarget=0;fillColor=none;points=[[0,0.5],[1,0.5]];portConstraint=eastwest;fontSize=16;" parent="NuQw6LrgB7U-fi54WxKk-1" vertex="1">
          <mxGeometry y="80" width="630" height="40" as="geometry" />
        </mxCell>
        <mxCell id="NuQw6LrgB7U-fi54WxKk-11" value="Successeurs" style="shape=partialRectangle;html=1;whiteSpace=wrap;connectable=0;strokeColor=inherit;overflow=hidden;fillColor=none;top=0;left=0;bottom=0;right=0;pointerEvents=1;fontSize=16;" parent="NuQw6LrgB7U-fi54WxKk-10" vertex="1">
          <mxGeometry width="63" height="40" as="geometry">
            <mxRectangle width="63" height="40" as="alternateBounds" />
          </mxGeometry>
        </mxCell>
        <mxCell id="NuQw6LrgB7U-fi54WxKk-12" value="B,D" style="shape=partialRectangle;html=1;whiteSpace=wrap;connectable=0;strokeColor=inherit;overflow=hidden;fillColor=none;top=0;left=0;bottom=0;right=0;pointerEvents=1;fontSize=16;" parent="NuQw6LrgB7U-fi54WxKk-10" vertex="1">
          <mxGeometry x="63" width="63" height="40" as="geometry">
            <mxRectangle width="63" height="40" as="alternateBounds" />
          </mxGeometry>
        </mxCell>
        <mxCell id="NuQw6LrgB7U-fi54WxKk-13" value="C,E,F,G,I" style="shape=partialRectangle;html=1;whiteSpace=wrap;connectable=0;strokeColor=inherit;overflow=hidden;fillColor=none;top=0;left=0;bottom=0;right=0;pointerEvents=1;fontSize=16;" parent="NuQw6LrgB7U-fi54WxKk-10" vertex="1">
          <mxGeometry x="126" width="74" height="40" as="geometry">
            <mxRectangle width="74" height="40" as="alternateBounds" />
          </mxGeometry>
        </mxCell>
        <mxCell id="NuQw6LrgB7U-fi54WxKk-17" value="H" style="shape=partialRectangle;html=1;whiteSpace=wrap;connectable=0;strokeColor=inherit;overflow=hidden;fillColor=none;top=0;left=0;bottom=0;right=0;pointerEvents=1;fontSize=16;" parent="NuQw6LrgB7U-fi54WxKk-10" vertex="1">
          <mxGeometry x="200" width="52" height="40" as="geometry">
            <mxRectangle width="52" height="40" as="alternateBounds" />
          </mxGeometry>
        </mxCell>
        <mxCell id="NuQw6LrgB7U-fi54WxKk-20" value="-" style="shape=partialRectangle;html=1;whiteSpace=wrap;connectable=0;strokeColor=inherit;overflow=hidden;fillColor=none;top=0;left=0;bottom=0;right=0;pointerEvents=1;fontSize=16;" parent="NuQw6LrgB7U-fi54WxKk-10" vertex="1">
          <mxGeometry x="252" width="63" height="40" as="geometry">
            <mxRectangle width="63" height="40" as="alternateBounds" />
          </mxGeometry>
        </mxCell>
        <mxCell id="NuQw6LrgB7U-fi54WxKk-23" value="F" style="shape=partialRectangle;html=1;whiteSpace=wrap;connectable=0;strokeColor=inherit;overflow=hidden;fillColor=none;top=0;left=0;bottom=0;right=0;pointerEvents=1;fontSize=16;" parent="NuQw6LrgB7U-fi54WxKk-10" vertex="1">
          <mxGeometry x="315" width="63" height="40" as="geometry">
            <mxRectangle width="63" height="40" as="alternateBounds" />
          </mxGeometry>
        </mxCell>
        <mxCell id="NuQw6LrgB7U-fi54WxKk-26" value="C,I" style="shape=partialRectangle;html=1;whiteSpace=wrap;connectable=0;strokeColor=inherit;overflow=hidden;fillColor=none;top=0;left=0;bottom=0;right=0;pointerEvents=1;fontSize=16;" parent="NuQw6LrgB7U-fi54WxKk-10" vertex="1">
          <mxGeometry x="378" width="63" height="40" as="geometry">
            <mxRectangle width="63" height="40" as="alternateBounds" />
          </mxGeometry>
        </mxCell>
        <mxCell id="NuQw6LrgB7U-fi54WxKk-29" value="-" style="shape=partialRectangle;html=1;whiteSpace=wrap;connectable=0;strokeColor=inherit;overflow=hidden;fillColor=none;top=0;left=0;bottom=0;right=0;pointerEvents=1;fontSize=16;" parent="NuQw6LrgB7U-fi54WxKk-10" vertex="1">
          <mxGeometry x="441" width="63" height="40" as="geometry">
            <mxRectangle width="63" height="40" as="alternateBounds" />
          </mxGeometry>
        </mxCell>
        <mxCell id="NuQw6LrgB7U-fi54WxKk-32" value="-" style="shape=partialRectangle;html=1;whiteSpace=wrap;connectable=0;strokeColor=inherit;overflow=hidden;fillColor=none;top=0;left=0;bottom=0;right=0;pointerEvents=1;fontSize=16;" parent="NuQw6LrgB7U-fi54WxKk-10" vertex="1">
          <mxGeometry x="504" width="63" height="40" as="geometry">
            <mxRectangle width="63" height="40" as="alternateBounds" />
          </mxGeometry>
        </mxCell>
        <mxCell id="NuQw6LrgB7U-fi54WxKk-38" value="H" style="shape=partialRectangle;html=1;whiteSpace=wrap;connectable=0;strokeColor=inherit;overflow=hidden;fillColor=none;top=0;left=0;bottom=0;right=0;pointerEvents=1;fontSize=16;" parent="NuQw6LrgB7U-fi54WxKk-10" vertex="1">
          <mxGeometry x="567" width="63" height="40" as="geometry">
            <mxRectangle width="63" height="40" as="alternateBounds" />
          </mxGeometry>
        </mxCell>
        <mxCell id="NuQw6LrgB7U-fi54WxKk-39" style="shape=tableRow;horizontal=0;startSize=0;swimlaneHead=0;swimlaneBody=0;strokeColor=inherit;top=0;left=0;bottom=0;right=0;collapsible=0;dropTarget=0;fillColor=none;points=[[0,0.5],[1,0.5]];portConstraint=eastwest;fontSize=16;" parent="NuQw6LrgB7U-fi54WxKk-1" vertex="1">
          <mxGeometry y="120" width="630" height="40" as="geometry" />
        </mxCell>
        <mxCell id="NuQw6LrgB7U-fi54WxKk-40" value="Niveau" style="shape=partialRectangle;html=1;whiteSpace=wrap;connectable=0;strokeColor=inherit;overflow=hidden;fillColor=none;top=0;left=0;bottom=0;right=0;pointerEvents=1;fontSize=16;" parent="NuQw6LrgB7U-fi54WxKk-39" vertex="1">
          <mxGeometry width="63" height="40" as="geometry">
            <mxRectangle width="63" height="40" as="alternateBounds" />
          </mxGeometry>
        </mxCell>
        <mxCell id="NuQw6LrgB7U-fi54WxKk-41" value="1" style="shape=partialRectangle;html=1;whiteSpace=wrap;connectable=0;strokeColor=inherit;overflow=hidden;fillColor=none;top=0;left=0;bottom=0;right=0;pointerEvents=1;fontSize=16;" parent="NuQw6LrgB7U-fi54WxKk-39" vertex="1">
          <mxGeometry x="63" width="63" height="40" as="geometry">
            <mxRectangle width="63" height="40" as="alternateBounds" />
          </mxGeometry>
        </mxCell>
        <mxCell id="NuQw6LrgB7U-fi54WxKk-42" value="2" style="shape=partialRectangle;html=1;whiteSpace=wrap;connectable=0;strokeColor=inherit;overflow=hidden;fillColor=none;top=0;left=0;bottom=0;right=0;pointerEvents=1;fontSize=16;" parent="NuQw6LrgB7U-fi54WxKk-39" vertex="1">
          <mxGeometry x="126" width="74" height="40" as="geometry">
            <mxRectangle width="74" height="40" as="alternateBounds" />
          </mxGeometry>
        </mxCell>
        <mxCell id="NuQw6LrgB7U-fi54WxKk-43" value="5" style="shape=partialRectangle;html=1;whiteSpace=wrap;connectable=0;strokeColor=inherit;overflow=hidden;fillColor=none;top=0;left=0;bottom=0;right=0;pointerEvents=1;fontSize=16;" parent="NuQw6LrgB7U-fi54WxKk-39" vertex="1">
          <mxGeometry x="200" width="52" height="40" as="geometry">
            <mxRectangle width="52" height="40" as="alternateBounds" />
          </mxGeometry>
        </mxCell>
        <mxCell id="NuQw6LrgB7U-fi54WxKk-44" value="2" style="shape=partialRectangle;html=1;whiteSpace=wrap;connectable=0;strokeColor=inherit;overflow=hidden;fillColor=none;top=0;left=0;bottom=0;right=0;pointerEvents=1;fontSize=16;" parent="NuQw6LrgB7U-fi54WxKk-39" vertex="1">
          <mxGeometry x="252" width="63" height="40" as="geometry">
            <mxRectangle width="63" height="40" as="alternateBounds" />
          </mxGeometry>
        </mxCell>
        <mxCell id="NuQw6LrgB7U-fi54WxKk-45" value="3" style="shape=partialRectangle;html=1;whiteSpace=wrap;connectable=0;strokeColor=inherit;overflow=hidden;fillColor=none;top=0;left=0;bottom=0;right=0;pointerEvents=1;fontSize=16;" parent="NuQw6LrgB7U-fi54WxKk-39" vertex="1">
          <mxGeometry x="315" width="63" height="40" as="geometry">
            <mxRectangle width="63" height="40" as="alternateBounds" />
          </mxGeometry>
        </mxCell>
        <mxCell id="NuQw6LrgB7U-fi54WxKk-46" value="4" style="shape=partialRectangle;html=1;whiteSpace=wrap;connectable=0;strokeColor=inherit;overflow=hidden;fillColor=none;top=0;left=0;bottom=0;right=0;pointerEvents=1;fontSize=16;" parent="NuQw6LrgB7U-fi54WxKk-39" vertex="1">
          <mxGeometry x="378" width="63" height="40" as="geometry">
            <mxRectangle width="63" height="40" as="alternateBounds" />
          </mxGeometry>
        </mxCell>
        <mxCell id="NuQw6LrgB7U-fi54WxKk-47" value="3" style="shape=partialRectangle;html=1;whiteSpace=wrap;connectable=0;strokeColor=inherit;overflow=hidden;fillColor=none;top=0;left=0;bottom=0;right=0;pointerEvents=1;fontSize=16;" parent="NuQw6LrgB7U-fi54WxKk-39" vertex="1">
          <mxGeometry x="441" width="63" height="40" as="geometry">
            <mxRectangle width="63" height="40" as="alternateBounds" />
          </mxGeometry>
        </mxCell>
        <mxCell id="NuQw6LrgB7U-fi54WxKk-48" value="6" style="shape=partialRectangle;html=1;whiteSpace=wrap;connectable=0;strokeColor=inherit;overflow=hidden;fillColor=none;top=0;left=0;bottom=0;right=0;pointerEvents=1;fontSize=16;" parent="NuQw6LrgB7U-fi54WxKk-39" vertex="1">
          <mxGeometry x="504" width="63" height="40" as="geometry">
            <mxRectangle width="63" height="40" as="alternateBounds" />
          </mxGeometry>
        </mxCell>
        <mxCell id="NuQw6LrgB7U-fi54WxKk-49" value="5" style="shape=partialRectangle;html=1;whiteSpace=wrap;connectable=0;strokeColor=inherit;overflow=hidden;fillColor=none;top=0;left=0;bottom=0;right=0;pointerEvents=1;fontSize=16;" parent="NuQw6LrgB7U-fi54WxKk-39" vertex="1">
          <mxGeometry x="567" width="63" height="40" as="geometry">
            <mxRectangle width="63" height="40" as="alternateBounds" />
          </mxGeometry>
        </mxCell>
        <mxCell id="7DfY2xv_rvniL1FtIvhc-9" style="edgeStyle=orthogonalEdgeStyle;rounded=0;orthogonalLoop=1;jettySize=auto;html=1;exitX=1;exitY=0.5;exitDx=0;exitDy=0;entryX=0;entryY=0.5;entryDx=0;entryDy=0;fillColor=#a20025;strokeColor=#6F0000;" edge="1" parent="1" source="NuQw6LrgB7U-fi54WxKk-50" target="7DfY2xv_rvniL1FtIvhc-1">
          <mxGeometry relative="1" as="geometry" />
        </mxCell>
        <mxCell id="7DfY2xv_rvniL1FtIvhc-10" style="edgeStyle=orthogonalEdgeStyle;rounded=0;orthogonalLoop=1;jettySize=auto;html=1;entryX=0;entryY=0.5;entryDx=0;entryDy=0;fillColor=#a20025;strokeColor=#6F0000;" edge="1" parent="1" source="NuQw6LrgB7U-fi54WxKk-50" target="7DfY2xv_rvniL1FtIvhc-2">
          <mxGeometry relative="1" as="geometry" />
        </mxCell>
        <mxCell id="NuQw6LrgB7U-fi54WxKk-50" value="A" style="ellipse;whiteSpace=wrap;html=1;aspect=fixed;fillColor=#a20025;fontColor=#ffffff;strokeColor=#6F0000;" parent="1" vertex="1">
          <mxGeometry x="90" y="440" width="80" height="80" as="geometry" />
        </mxCell>
        <mxCell id="7DfY2xv_rvniL1FtIvhc-11" style="edgeStyle=orthogonalEdgeStyle;rounded=0;orthogonalLoop=1;jettySize=auto;html=1;entryX=0;entryY=0.5;entryDx=0;entryDy=0;" edge="1" parent="1" source="7DfY2xv_rvniL1FtIvhc-1" target="7DfY2xv_rvniL1FtIvhc-3">
          <mxGeometry relative="1" as="geometry" />
        </mxCell>
        <mxCell id="7DfY2xv_rvniL1FtIvhc-12" style="edgeStyle=orthogonalEdgeStyle;rounded=0;orthogonalLoop=1;jettySize=auto;html=1;exitX=1;exitY=0.5;exitDx=0;exitDy=0;fillColor=#fa6800;strokeColor=#C73500;" edge="1" parent="1" source="7DfY2xv_rvniL1FtIvhc-1" target="7DfY2xv_rvniL1FtIvhc-6">
          <mxGeometry relative="1" as="geometry" />
        </mxCell>
        <mxCell id="7DfY2xv_rvniL1FtIvhc-13" style="edgeStyle=orthogonalEdgeStyle;rounded=0;orthogonalLoop=1;jettySize=auto;html=1;exitX=1;exitY=0.5;exitDx=0;exitDy=0;entryX=0;entryY=0.5;entryDx=0;entryDy=0;fillColor=#fa6800;strokeColor=#C73500;" edge="1" parent="1" source="7DfY2xv_rvniL1FtIvhc-1" target="7DfY2xv_rvniL1FtIvhc-5">
          <mxGeometry relative="1" as="geometry" />
        </mxCell>
        <mxCell id="7DfY2xv_rvniL1FtIvhc-14" style="edgeStyle=orthogonalEdgeStyle;rounded=0;orthogonalLoop=1;jettySize=auto;html=1;entryX=0.5;entryY=0;entryDx=0;entryDy=0;fillColor=#fa6800;strokeColor=#C73500;" edge="1" parent="1" source="7DfY2xv_rvniL1FtIvhc-1" target="7DfY2xv_rvniL1FtIvhc-4">
          <mxGeometry relative="1" as="geometry" />
        </mxCell>
        <mxCell id="7DfY2xv_rvniL1FtIvhc-15" style="edgeStyle=orthogonalEdgeStyle;rounded=0;orthogonalLoop=1;jettySize=auto;html=1;exitX=1;exitY=0.5;exitDx=0;exitDy=0;entryX=0;entryY=0.5;entryDx=0;entryDy=0;fillColor=#fa6800;strokeColor=#C73500;" edge="1" parent="1" source="7DfY2xv_rvniL1FtIvhc-1" target="7DfY2xv_rvniL1FtIvhc-7">
          <mxGeometry relative="1" as="geometry" />
        </mxCell>
        <mxCell id="7DfY2xv_rvniL1FtIvhc-1" value="B" style="ellipse;whiteSpace=wrap;html=1;aspect=fixed;fillColor=#fa6800;fontColor=#000000;strokeColor=#C73500;" vertex="1" parent="1">
          <mxGeometry x="270" y="300" width="80" height="80" as="geometry" />
        </mxCell>
        <mxCell id="7DfY2xv_rvniL1FtIvhc-2" value="D" style="ellipse;whiteSpace=wrap;html=1;aspect=fixed;" vertex="1" parent="1">
          <mxGeometry x="270" y="540" width="80" height="80" as="geometry" />
        </mxCell>
        <mxCell id="7DfY2xv_rvniL1FtIvhc-3" value="E" style="ellipse;whiteSpace=wrap;html=1;aspect=fixed;" vertex="1" parent="1">
          <mxGeometry x="550" y="300" width="80" height="80" as="geometry" />
        </mxCell>
        <mxCell id="7DfY2xv_rvniL1FtIvhc-4" value="G" style="ellipse;whiteSpace=wrap;html=1;aspect=fixed;" vertex="1" parent="1">
          <mxGeometry x="550" y="540" width="80" height="80" as="geometry" />
        </mxCell>
        <mxCell id="7DfY2xv_rvniL1FtIvhc-5" value="F" style="ellipse;whiteSpace=wrap;html=1;aspect=fixed;" vertex="1" parent="1">
          <mxGeometry x="760" y="420" width="80" height="80" as="geometry" />
        </mxCell>
        <mxCell id="7DfY2xv_rvniL1FtIvhc-6" value="C" style="ellipse;whiteSpace=wrap;html=1;aspect=fixed;" vertex="1" parent="1">
          <mxGeometry x="980" y="300" width="80" height="80" as="geometry" />
        </mxCell>
        <mxCell id="7DfY2xv_rvniL1FtIvhc-7" value="I" style="ellipse;whiteSpace=wrap;html=1;aspect=fixed;" vertex="1" parent="1">
          <mxGeometry x="980" y="540" width="80" height="80" as="geometry" />
        </mxCell>
        <mxCell id="7DfY2xv_rvniL1FtIvhc-8" value="H" style="ellipse;whiteSpace=wrap;html=1;aspect=fixed;" vertex="1" parent="1">
          <mxGeometry x="1241" y="440" width="80" height="80" as="geometry" />
        </mxCell>
      </root>
    </mxGraphModel>
  </diagram>
</mxfile>
